<svg id="svg" xmlns="http://www.w3.org/2000/svg" xmlns:xlink="http://www.w3.org/1999/xlink" width="400" height="117.46835443037973" viewBox="0, 0, 400,117.46835443037973" version="1.1">
    <g id="svgg">
        <path id="path0" d="M230.572 1.135 C 231.241 3.101,235.590 10.506,242.115 20.792 C 243.060 22.281,244.613 24.728,245.565 26.228 C 247.728 29.634,259.770 47.617,263.293 52.703 C 267.247 58.410,269.185 61.184,270.953 63.667 C 271.834 64.904,272.979 66.517,273.498 67.250 C 274.017 67.983,275.255 69.708,276.249 71.083 C 277.243 72.458,279.079 75.008,280.330 76.750 C 286.075 84.748,299.053 102.220,307.459 113.274 C 308.654 114.845,309.730 116.401,309.850 116.732 L 310.067 117.333 355.033 117.333 L 400.000 117.333 400.000 58.667 L 400.000 0.000 315.093 0.000 L 230.187 0.000 230.572 1.135 " stroke="none" fill="#1ccb84" fill-rule="evenodd"></path>
    </g>
</svg>