<svg width="395" height="250" viewBox="0 0 395 250" fill="none" xmlns="http://www.w3.org/2000/svg">
    <mask id="mask0" mask-type="alpha" maskUnits="userSpaceOnUse" x="0" y="0" width="395" height="250">
        <path d="M1.29932 1.25H393.701V248.75H1.29932V1.25Z" fill="#F8F7F9" stroke="#B1A6F1" stroke-width="2" />
    </mask>
    <g mask="url(#mask0)">
        <path d="M260.456 -365.911C391.572 -426.117 478.463 -339.924 503.238 -294.312C519.754 -340.454 620.5 -399.985 708.034 -373.866C894.661 -318.179 853.773 -144.581 836.856 -108.157C788.821 -4.73672 561.043 306.054 524.708 329.389C488.375 352.725 273.67 87.5461 224.124 -4.73669C174.576 -97.0196 83.7392 -284.766 260.456 -365.911Z" fill="#19C787" />
        <mask id="mask1" mask-type="alpha" maskUnits="userSpaceOnUse" x="-189" y="72" width="720" height="444">
            <path d="M-175.941 362.818C-149.15 431.22 -54.6561 448.321 -10.7578 448.321L-10.826 502.731C-10.8617 531.233 59.0462 507.914 81.9497 461.276C158.526 478.117 502.58 450.911 528.302 300.634C539.838 233.234 513.693 162.016 417.006 107.605C320.319 53.1941 115.185 64.2156 -10.3488 121.855C-182.458 200.881 -209.429 277.315 -175.941 362.818Z" fill="#100A30" />
        </mask>
        <g mask="url(#mask1)"></g>
    </g>
</svg>